<svg xmlns="http://www.w3.org/2000/svg" width="500" height="500" style="width:100%;height:100%"><defs><clipPath id="a"><path d="M0 0h500v500H0z"/></clipPath></defs><g clip-path="url(#a)"><path stroke-linecap="round" stroke-linejoin="round" stroke="#F49F9C" stroke-width="12.04" d="M209.971 250h-53.374M236.657 250h26.686" fill="none" display="block"/><g display="block"><path stroke-linecap="round" stroke-linejoin="round" stroke="#F49F9C" stroke-width="12.04" d="M276.686 290.03h66.717v120.09h-120.09v-53.373H250" fill="none"/></g><path stroke-linecap="round" stroke-linejoin="round" stroke="#F49F9C" stroke-width="12.04" d="M209.97 209.97v-93.402h26.686M354.5 330.06h55.619v66.374h-66.716V330.06h40.03v-66.716h-80.06v-40.03h40.03v-34.23" fill="none" display="block"/><path stroke-linecap="round" stroke-linejoin="round" stroke="#9CE4F4" stroke-width="12.04" d="M410.119 276.687s0 0 0 0v-53.373H276.687v-66.717M370.089 363.747h13.344" fill="none" display="block"/><path stroke-linecap="round" stroke-linejoin="round" stroke="#9CE4F4" stroke-width="12.04" d="M129.91 290.029h-26.686v-66.716h53.373v66.716h120.089v93.403h39.688v-53.373h-79.717V250H209.97v-40.03h26.687v-34.371h40.029v-72.375h-40.029v40.029" fill="none" display="block"/><g display="block"><path stroke-linecap="round" stroke-linejoin="round" stroke="#9CE4F4" stroke-width="12.04" d="M410.119 183.287h-93.402V89.885h93.402v93.402z" fill="none"/><path stroke-linecap="round" stroke-linejoin="round" stroke="#F49F9C" stroke-width="12.04" d="M385.875 159.043h-44.914v-44.914h44.914v44.914z" fill="none"/></g><g display="block"><path stroke-linecap="round" stroke-linejoin="round" stroke="#9CE4F4" stroke-width="12.04" d="M183.283 183.287H89.881V89.885h93.402v93.402z" fill="none"/><path stroke-linecap="round" stroke-linejoin="round" stroke="#F49F9C" stroke-width="12.04" d="M159.039 159.043h-44.914v-44.914h44.914v44.914z" fill="none"/></g><g display="block"><path stroke-linecap="round" stroke-linejoin="round" stroke="#9CE4F4" stroke-width="12.04" d="M183.283 410.119H89.881v-93.402h93.402v93.402z" fill="none"/><path stroke-linecap="round" stroke-linejoin="round" stroke="#F49F9C" stroke-width="12.04" d="M159.039 385.875h-44.914v-44.914h44.914v44.914z" fill="none"/></g></g></svg>